<mxfile host="app.diagrams.net" agent="Mozilla/5.0 (Macintosh; Intel Mac OS X 10_15_7) AppleWebKit/537.36 (KHTML, like Gecko) Chrome/137.0.0.0 Safari/537.36 Edg/137.0.0.0" version="28.1.0">
  <diagram name="第 1 页" id="5854gcAgxEi9p37vvvO0">
    <mxGraphModel dx="2163" dy="561" grid="1" gridSize="10" guides="1" tooltips="1" connect="1" arrows="1" fold="1" page="1" pageScale="1" pageWidth="1169" pageHeight="827" math="0" shadow="0">
      <root>
        <mxCell id="0" />
        <mxCell id="1" parent="0" />
        <mxCell id="LhdZbFb5jw5E8dZrb60K-1" value="" style="rounded=0;whiteSpace=wrap;html=1;" vertex="1" parent="1">
          <mxGeometry x="120" y="70" width="680" height="100" as="geometry" />
        </mxCell>
        <mxCell id="LhdZbFb5jw5E8dZrb60K-30" style="rounded=0;orthogonalLoop=1;jettySize=auto;html=1;exitX=0.5;exitY=1;exitDx=0;exitDy=0;entryX=0.5;entryY=0;entryDx=0;entryDy=0;" edge="1" parent="1" source="LhdZbFb5jw5E8dZrb60K-2" target="LhdZbFb5jw5E8dZrb60K-9">
          <mxGeometry relative="1" as="geometry" />
        </mxCell>
        <mxCell id="LhdZbFb5jw5E8dZrb60K-2" value="小于003索引&lt;div&gt;的数据&lt;span style=&quot;background-color: transparent; color: light-dark(rgb(0, 0, 0), rgb(255, 255, 255));&quot;&gt;磁盘地址&lt;/span&gt;&lt;/div&gt;" style="rounded=1;whiteSpace=wrap;html=1;" vertex="1" parent="1">
          <mxGeometry x="160" y="90" width="120" height="60" as="geometry" />
        </mxCell>
        <mxCell id="LhdZbFb5jw5E8dZrb60K-3" value="&lt;b&gt;&lt;font style=&quot;font-size: 18px;&quot;&gt;003&lt;/font&gt;&lt;/b&gt;&lt;div&gt;（冗余的索引）&lt;/div&gt;" style="rounded=1;whiteSpace=wrap;html=1;" vertex="1" parent="1">
          <mxGeometry x="280" y="90" width="120" height="60" as="geometry" />
        </mxCell>
        <mxCell id="LhdZbFb5jw5E8dZrb60K-4" value="&lt;b&gt;&lt;font style=&quot;font-size: 18px;&quot;&gt;005&lt;/font&gt;&lt;/b&gt;&lt;div&gt;（&lt;span style=&quot;background-color: transparent; color: light-dark(rgb(0, 0, 0), rgb(255, 255, 255));&quot;&gt;冗余的索引&lt;/span&gt;&lt;span style=&quot;background-color: transparent; color: light-dark(rgb(0, 0, 0), rgb(255, 255, 255));&quot;&gt;）&lt;/span&gt;&lt;/div&gt;" style="rounded=1;whiteSpace=wrap;html=1;" vertex="1" parent="1">
          <mxGeometry x="520" y="90" width="120" height="60" as="geometry" />
        </mxCell>
        <mxCell id="LhdZbFb5jw5E8dZrb60K-32" style="rounded=0;orthogonalLoop=1;jettySize=auto;html=1;exitX=0.5;exitY=1;exitDx=0;exitDy=0;entryX=0.5;entryY=0;entryDx=0;entryDy=0;" edge="1" parent="1" source="LhdZbFb5jw5E8dZrb60K-5" target="LhdZbFb5jw5E8dZrb60K-17">
          <mxGeometry relative="1" as="geometry" />
        </mxCell>
        <mxCell id="LhdZbFb5jw5E8dZrb60K-5" value="大于等于005索引&lt;div&gt;的数据磁盘地址&lt;/div&gt;" style="rounded=1;whiteSpace=wrap;html=1;" vertex="1" parent="1">
          <mxGeometry x="640" y="90" width="120" height="60" as="geometry" />
        </mxCell>
        <mxCell id="LhdZbFb5jw5E8dZrb60K-31" style="edgeStyle=orthogonalEdgeStyle;rounded=0;orthogonalLoop=1;jettySize=auto;html=1;exitX=0.5;exitY=1;exitDx=0;exitDy=0;entryX=0.5;entryY=0;entryDx=0;entryDy=0;" edge="1" parent="1" source="LhdZbFb5jw5E8dZrb60K-6" target="LhdZbFb5jw5E8dZrb60K-22">
          <mxGeometry relative="1" as="geometry" />
        </mxCell>
        <mxCell id="LhdZbFb5jw5E8dZrb60K-6" value="&lt;div&gt;小于005&lt;span style=&quot;background-color: transparent; color: light-dark(rgb(0, 0, 0), rgb(255, 255, 255));&quot;&gt;索引&lt;/span&gt;&lt;/div&gt;&lt;div&gt;大于等于003索引&lt;/div&gt;&lt;div&gt;&lt;span style=&quot;background-color: transparent; color: light-dark(rgb(0, 0, 0), rgb(255, 255, 255));&quot;&gt;的&lt;/span&gt;数据&lt;span style=&quot;background-color: transparent; color: light-dark(rgb(0, 0, 0), rgb(255, 255, 255));&quot;&gt;磁盘地址&lt;/span&gt;&lt;/div&gt;" style="rounded=1;whiteSpace=wrap;html=1;" vertex="1" parent="1">
          <mxGeometry x="400" y="90" width="120" height="60" as="geometry" />
        </mxCell>
        <mxCell id="LhdZbFb5jw5E8dZrb60K-7" value="" style="shape=curlyBracket;whiteSpace=wrap;html=1;rounded=1;flipH=1;labelPosition=right;verticalLabelPosition=middle;align=left;verticalAlign=middle;direction=south;" vertex="1" parent="1">
          <mxGeometry x="120" y="40" width="680" height="20" as="geometry" />
        </mxCell>
        <mxCell id="LhdZbFb5jw5E8dZrb60K-8" value="索引页" style="text;strokeColor=none;fillColor=none;html=1;fontSize=24;fontStyle=1;verticalAlign=middle;align=center;" vertex="1" parent="1">
          <mxGeometry x="410" width="100" height="40" as="geometry" />
        </mxCell>
        <mxCell id="LhdZbFb5jw5E8dZrb60K-9" value="" style="rounded=0;whiteSpace=wrap;html=1;" vertex="1" parent="1">
          <mxGeometry x="-160" y="310" width="320" height="160" as="geometry" />
        </mxCell>
        <mxCell id="LhdZbFb5jw5E8dZrb60K-10" value="001" style="rounded=1;whiteSpace=wrap;html=1;fontStyle=1;fontSize=18;" vertex="1" parent="1">
          <mxGeometry x="-120" y="330" width="120" height="60" as="geometry" />
        </mxCell>
        <mxCell id="LhdZbFb5jw5E8dZrb60K-11" value="002" style="rounded=1;whiteSpace=wrap;html=1;fontStyle=1;fontSize=18;" vertex="1" parent="1">
          <mxGeometry y="330" width="120" height="60" as="geometry" />
        </mxCell>
        <mxCell id="LhdZbFb5jw5E8dZrb60K-15" value="001的整行数据" style="rounded=1;whiteSpace=wrap;html=1;" vertex="1" parent="1">
          <mxGeometry x="-120" y="390" width="120" height="60" as="geometry" />
        </mxCell>
        <mxCell id="LhdZbFb5jw5E8dZrb60K-16" value="002的整行数据" style="rounded=1;whiteSpace=wrap;html=1;" vertex="1" parent="1">
          <mxGeometry y="390" width="120" height="60" as="geometry" />
        </mxCell>
        <mxCell id="LhdZbFb5jw5E8dZrb60K-17" value="" style="rounded=0;whiteSpace=wrap;html=1;" vertex="1" parent="1">
          <mxGeometry x="760" y="310" width="320" height="160" as="geometry" />
        </mxCell>
        <mxCell id="LhdZbFb5jw5E8dZrb60K-18" value="005" style="rounded=1;whiteSpace=wrap;html=1;fontStyle=1;fontSize=18;" vertex="1" parent="1">
          <mxGeometry x="800" y="330" width="120" height="60" as="geometry" />
        </mxCell>
        <mxCell id="LhdZbFb5jw5E8dZrb60K-19" value="006" style="rounded=1;whiteSpace=wrap;html=1;fontStyle=1;fontSize=18;" vertex="1" parent="1">
          <mxGeometry x="920" y="330" width="120" height="60" as="geometry" />
        </mxCell>
        <mxCell id="LhdZbFb5jw5E8dZrb60K-20" value="005的整行数据" style="rounded=1;whiteSpace=wrap;html=1;" vertex="1" parent="1">
          <mxGeometry x="800" y="390" width="120" height="60" as="geometry" />
        </mxCell>
        <mxCell id="LhdZbFb5jw5E8dZrb60K-21" value="006的整行数据" style="rounded=1;whiteSpace=wrap;html=1;" vertex="1" parent="1">
          <mxGeometry x="920" y="390" width="120" height="60" as="geometry" />
        </mxCell>
        <mxCell id="LhdZbFb5jw5E8dZrb60K-22" value="" style="rounded=0;whiteSpace=wrap;html=1;" vertex="1" parent="1">
          <mxGeometry x="300" y="310" width="320" height="160" as="geometry" />
        </mxCell>
        <mxCell id="LhdZbFb5jw5E8dZrb60K-23" value="003" style="rounded=1;whiteSpace=wrap;html=1;fontStyle=1;fontSize=18;" vertex="1" parent="1">
          <mxGeometry x="340" y="330" width="120" height="60" as="geometry" />
        </mxCell>
        <mxCell id="LhdZbFb5jw5E8dZrb60K-24" value="004" style="rounded=1;whiteSpace=wrap;html=1;fontStyle=1;fontSize=18;" vertex="1" parent="1">
          <mxGeometry x="460" y="330" width="120" height="60" as="geometry" />
        </mxCell>
        <mxCell id="LhdZbFb5jw5E8dZrb60K-25" value="003的整行数据" style="rounded=1;whiteSpace=wrap;html=1;" vertex="1" parent="1">
          <mxGeometry x="340" y="390" width="120" height="60" as="geometry" />
        </mxCell>
        <mxCell id="LhdZbFb5jw5E8dZrb60K-26" value="004的整行数据" style="rounded=1;whiteSpace=wrap;html=1;" vertex="1" parent="1">
          <mxGeometry x="460" y="390" width="120" height="60" as="geometry" />
        </mxCell>
        <mxCell id="LhdZbFb5jw5E8dZrb60K-28" value="" style="endArrow=classic;startArrow=classic;html=1;rounded=0;entryX=0;entryY=0.5;entryDx=0;entryDy=0;exitX=1;exitY=0.5;exitDx=0;exitDy=0;" edge="1" parent="1" source="LhdZbFb5jw5E8dZrb60K-9" target="LhdZbFb5jw5E8dZrb60K-22">
          <mxGeometry width="50" height="50" relative="1" as="geometry">
            <mxPoint x="195" y="400" as="sourcePoint" />
            <mxPoint x="245" y="350" as="targetPoint" />
          </mxGeometry>
        </mxCell>
        <mxCell id="LhdZbFb5jw5E8dZrb60K-29" value="" style="endArrow=classic;startArrow=classic;html=1;rounded=0;entryX=0;entryY=0.5;entryDx=0;entryDy=0;exitX=1;exitY=0.5;exitDx=0;exitDy=0;" edge="1" parent="1" source="LhdZbFb5jw5E8dZrb60K-22" target="LhdZbFb5jw5E8dZrb60K-17">
          <mxGeometry width="50" height="50" relative="1" as="geometry">
            <mxPoint x="660" y="380" as="sourcePoint" />
            <mxPoint x="380" y="380" as="targetPoint" />
          </mxGeometry>
        </mxCell>
      </root>
    </mxGraphModel>
  </diagram>
</mxfile>
